<svg width="142" height="46" viewBox="0 0 142 46" fill="none" xmlns="http://www.w3.org/2000/svg">
<rect width="46" height="46" fill="#00B2E0"/>
<path d="M30.034 45.372C26.81 45.372 23.71 44.8553 20.734 43.822C17.7993 42.7887 15.526 41.4247 13.914 39.73L15.712 36.196C17.2827 37.7667 19.37 39.048 21.974 40.04C24.578 40.9907 27.2647 41.466 30.034 41.466C33.9193 41.466 36.8333 40.7633 38.776 39.358C40.7187 37.9113 41.69 36.0513 41.69 33.778C41.69 32.042 41.1527 30.6573 40.078 29.624C39.0447 28.5907 37.7633 27.8053 36.234 27.268C34.7047 26.6893 32.576 26.0693 29.848 25.408C26.5827 24.5813 23.9787 23.796 22.036 23.052C20.0933 22.2667 18.4193 21.0887 17.014 19.518C15.65 17.9473 14.968 15.8187 14.968 13.132C14.968 10.9413 15.5467 8.95733 16.704 7.18C17.8613 5.36133 19.6387 3.91466 22.036 2.84C24.4333 1.76533 27.4093 1.228 30.964 1.228C33.444 1.228 35.862 1.57933 38.218 2.282C40.6153 2.94333 42.682 3.87333 44.418 5.072L42.868 8.73C41.0493 7.53133 39.1067 6.64267 37.04 6.064C34.9733 5.444 32.948 5.134 30.964 5.134C27.1613 5.134 24.2887 5.878 22.346 7.366C20.4447 8.81266 19.494 10.6933 19.494 13.008C19.494 14.744 20.0107 16.1493 21.044 17.224C22.1187 18.2573 23.4413 19.0633 25.012 19.642C26.624 20.1793 28.7733 20.7787 31.46 21.44C34.6427 22.2253 37.2053 23.0107 39.148 23.796C41.132 24.54 42.806 25.6973 44.17 27.268C45.534 28.7973 46.216 30.8847 46.216 33.53C46.216 35.7207 45.6167 37.7253 44.418 39.544C43.2607 41.3213 41.4627 42.7473 39.024 43.822C36.5853 44.8553 33.5887 45.372 30.034 45.372ZM85.8485 45L75.9285 31.05C74.8125 31.174 73.6552 31.236 72.4565 31.236H60.8005V45H56.2125V1.6H72.4565C77.9952 1.6 82.3352 2.92266 85.4765 5.568C88.6179 8.21333 90.1885 11.8507 90.1885 16.48C90.1885 19.8693 89.3205 22.742 87.5845 25.098C85.8899 27.4127 83.4512 29.0867 80.2685 30.12L90.8705 45H85.8485ZM72.3325 27.33C76.6312 27.33 79.9172 26.3793 82.1905 24.478C84.4639 22.5767 85.6005 19.9107 85.6005 16.48C85.6005 12.9667 84.4639 10.28 82.1905 8.42C79.9172 6.51866 76.6312 5.568 72.3325 5.568H60.8005V27.33H72.3325ZM131.583 23.3H135.985V45H131.955V41.342C130.302 42.6647 128.359 43.6773 126.127 44.38C123.937 45.0413 121.581 45.372 119.059 45.372C115.174 45.372 111.557 44.504 108.209 42.768C104.903 41.032 102.237 38.5107 100.211 35.204C98.1859 31.8973 97.1732 27.9707 97.1732 23.424C97.1732 19.208 98.1652 15.426 100.149 12.078C102.133 8.68866 104.861 6.04333 108.333 4.142C111.805 2.19933 115.732 1.228 120.113 1.228C123.42 1.228 126.458 1.76533 129.227 2.84C131.997 3.87333 134.332 5.42333 136.233 7.49L133.381 10.404C129.951 7.01466 125.59 5.32 120.299 5.32C116.786 5.32 113.603 6.10533 110.751 7.676C107.941 9.20533 105.729 11.3547 104.117 14.124C102.505 16.8933 101.699 19.9933 101.699 23.424C101.699 27.1027 102.505 30.306 104.117 33.034C105.771 35.7207 107.941 37.7873 110.627 39.234C113.355 40.6393 116.269 41.342 119.369 41.342C121.643 41.342 123.833 40.97 125.941 40.226C128.091 39.4407 129.971 38.2627 131.583 36.692V23.3Z" fill="black"/>
</svg>
