<svg id="svg" version="1.1" xmlns="http://www.w3.org/2000/svg" xmlns:xlink="http://www.w3.org/1999/xlink" width="400" height="186.42416368950958" viewBox="0, 0, 400,186.42416368950958"><g id="svgg"><path id="path0" d="M331.333 0.107 C 325.076 0.685,321.236 1.251,318.250 2.035 C 317.883 2.131,317.171 2.307,316.667 2.425 C 316.162 2.543,315.225 2.799,314.583 2.995 C 313.942 3.191,313.192 3.414,312.917 3.491 C 312.269 3.673,310.894 4.160,310.225 4.444 C 309.936 4.566,309.636 4.669,309.558 4.672 C 309.480 4.675,309.117 4.823,308.750 5.000 C 308.383 5.177,307.996 5.325,307.889 5.328 C 307.781 5.331,307.481 5.442,307.222 5.575 C 306.962 5.708,305.475 6.431,303.917 7.181 C 302.358 7.932,301.058 8.611,301.028 8.690 C 300.997 8.769,300.889 8.833,300.788 8.833 C 300.611 8.833,298.340 10.136,298.167 10.336 C 298.121 10.389,297.708 10.648,297.250 10.910 C 296.792 11.173,296.379 11.432,296.333 11.486 C 296.194 11.649,295.187 12.333,295.085 12.333 C 295.033 12.333,294.631 12.615,294.193 12.958 C 293.755 13.302,293.186 13.733,292.929 13.917 C 292.673 14.100,292.378 14.327,292.273 14.420 C 292.169 14.514,291.515 15.052,290.820 15.616 C 289.433 16.742,287.700 18.324,286.541 19.522 C 284.581 21.550,284.020 22.156,283.249 23.083 C 282.791 23.633,282.377 24.121,282.328 24.167 C 282.098 24.384,279.833 27.335,279.833 27.419 C 279.833 27.471,279.759 27.605,279.669 27.715 C 278.889 28.672,278.667 28.990,278.667 29.149 C 278.667 29.250,278.600 29.333,278.519 29.333 C 278.438 29.333,278.248 29.577,278.098 29.875 C 277.760 30.545,277.449 31.057,277.315 31.167 C 277.259 31.212,277.087 31.475,276.933 31.750 C 276.779 32.025,276.476 32.550,276.259 32.917 C 276.042 33.283,275.672 33.958,275.435 34.417 C 275.199 34.875,274.897 35.438,274.765 35.667 C 274.388 36.317,272.894 39.536,272.753 40.000 C 272.683 40.229,272.557 40.503,272.473 40.609 C 272.388 40.715,272.251 41.015,272.168 41.276 C 272.085 41.536,271.824 42.275,271.588 42.917 C 270.055 47.083,269.292 49.892,268.350 54.833 C 266.835 62.783,267.072 74.298,268.914 82.250 C 269.041 82.800,269.190 83.475,269.245 83.750 C 269.340 84.226,269.528 84.934,270.106 87.000 C 270.247 87.504,270.506 88.293,270.681 88.753 C 270.857 89.213,271.000 89.680,271.000 89.789 C 271.000 89.899,271.107 90.235,271.237 90.536 C 271.367 90.837,271.640 91.533,271.843 92.083 C 272.046 92.633,272.380 93.458,272.586 93.917 C 272.792 94.375,273.076 95.013,273.217 95.333 C 274.141 97.437,275.228 99.537,276.475 101.632 C 276.764 102.118,277.000 102.586,277.000 102.674 C 277.000 102.762,277.056 102.833,277.125 102.834 C 277.194 102.834,277.469 103.227,277.737 103.709 C 278.005 104.190,278.271 104.621,278.329 104.667 C 278.387 104.712,278.606 105.033,278.817 105.379 C 279.027 105.726,279.286 106.102,279.391 106.215 C 279.497 106.328,279.842 106.795,280.158 107.252 C 280.474 107.709,280.779 108.121,280.836 108.167 C 280.893 108.212,281.408 108.850,281.980 109.583 C 283.609 111.672,285.318 113.486,288.849 116.875 C 289.207 117.219,289.575 117.500,289.667 117.500 C 289.758 117.500,289.833 117.562,289.833 117.637 C 289.833 117.712,290.340 118.177,290.958 118.670 C 291.577 119.163,292.108 119.626,292.139 119.700 C 292.169 119.773,292.271 119.833,292.365 119.833 C 292.459 119.833,292.697 119.980,292.893 120.159 C 293.514 120.726,294.830 121.667,295.001 121.667 C 295.092 121.667,295.167 121.734,295.167 121.817 C 295.167 121.942,295.937 122.493,296.583 122.830 C 296.675 122.878,297.087 123.140,297.500 123.413 C 298.486 124.066,298.832 124.277,299.333 124.532 C 299.563 124.648,299.787 124.789,299.833 124.846 C 299.922 124.955,300.139 125.075,301.940 126.010 C 302.569 126.336,303.233 126.690,303.417 126.796 C 303.702 126.962,304.862 127.493,306.917 128.400 C 307.192 128.522,307.829 128.790,308.333 128.996 C 308.837 129.202,309.496 129.475,309.797 129.602 C 310.098 129.729,310.453 129.833,310.585 129.833 C 310.716 129.833,311.145 129.975,311.537 130.148 C 312.228 130.453,312.606 130.576,315.083 131.304 C 318.886 132.423,322.452 133.141,327.302 133.767 C 330.857 134.226,342.468 134.203,345.583 133.731 C 346.408 133.606,347.458 133.474,347.917 133.437 C 348.705 133.375,350.098 133.123,352.750 132.566 C 353.392 132.431,354.142 132.282,354.417 132.236 C 354.962 132.143,356.318 131.766,357.500 131.378 C 357.912 131.242,358.512 131.072,358.833 130.999 C 359.154 130.926,359.679 130.772,360.000 130.658 C 360.321 130.543,360.996 130.302,361.500 130.123 C 362.004 129.943,362.653 129.691,362.942 129.564 C 363.231 129.437,363.568 129.333,363.692 129.333 C 363.816 129.332,364.162 129.182,364.462 128.999 C 364.762 128.816,365.082 128.667,365.173 128.667 C 365.532 128.667,370.930 126.015,371.566 125.526 C 371.667 125.448,372.087 125.204,372.499 124.984 C 373.215 124.600,376.556 122.389,377.138 121.913 C 377.291 121.788,377.801 121.400,378.271 121.051 C 380.625 119.302,383.835 116.274,386.099 113.667 C 386.457 113.254,386.793 112.879,386.846 112.833 C 387.128 112.590,389.333 109.648,389.333 109.516 C 389.333 109.431,389.390 109.336,389.458 109.306 C 389.604 109.241,390.500 108.063,390.500 107.936 C 390.500 107.889,390.744 107.494,391.042 107.059 C 392.228 105.325,394.641 100.644,395.669 98.083 C 398.437 91.182,399.671 84.150,399.668 75.292 L 399.667 71.500 366.750 71.500 L 333.833 71.500 333.833 76.250 L 333.833 81.000 361.583 81.000 L 389.333 81.000 389.333 81.341 C 389.333 82.669,388.113 88.862,387.479 90.750 C 387.387 91.025,387.124 91.813,386.895 92.500 C 386.184 94.633,384.653 98.052,383.574 99.917 C 383.362 100.283,383.085 100.771,382.958 101.000 C 382.469 101.886,382.240 102.245,381.960 102.563 C 381.801 102.744,381.627 103.029,381.574 103.196 C 381.521 103.363,381.408 103.500,381.322 103.500 C 381.237 103.500,381.167 103.606,381.167 103.736 C 381.167 103.866,381.110 103.997,381.042 104.028 C 380.973 104.058,380.453 104.691,379.887 105.435 C 377.455 108.625,373.106 112.866,370.973 114.126 C 370.713 114.280,370.500 114.464,370.500 114.536 C 370.500 114.608,370.387 114.667,370.250 114.667 C 370.113 114.667,370.000 114.725,370.000 114.795 C 370.000 114.866,369.738 115.066,369.417 115.238 C 369.096 115.411,368.833 115.607,368.833 115.673 C 368.833 115.740,368.702 115.839,368.542 115.892 C 368.381 115.946,368.100 116.086,367.917 116.203 C 367.734 116.321,367.397 116.538,367.167 116.686 C 365.811 117.563,359.763 120.500,359.313 120.500 C 359.231 120.500,358.845 120.640,358.457 120.811 C 358.068 120.982,357.300 121.257,356.750 121.422 C 356.200 121.587,355.337 121.852,354.833 122.011 C 353.042 122.577,349.162 123.500,348.576 123.500 C 348.324 123.500,347.547 123.606,346.850 123.735 C 339.222 125.147,328.459 124.678,320.083 122.569 C 318.511 122.173,314.881 121.058,314.000 120.700 C 313.771 120.607,313.171 120.366,312.667 120.165 C 309.903 119.061,305.393 116.798,303.783 115.708 C 303.343 115.410,302.769 115.056,302.507 114.920 C 302.246 114.785,301.930 114.579,301.805 114.462 C 301.681 114.345,301.205 113.991,300.748 113.673 C 300.291 113.356,299.892 113.037,299.861 112.965 C 299.831 112.893,299.707 112.833,299.587 112.833 C 299.467 112.833,299.326 112.721,299.273 112.583 C 299.220 112.446,299.100 112.333,299.006 112.333 C 298.913 112.333,298.667 112.191,298.460 112.017 C 298.253 111.843,297.742 111.409,297.324 111.053 C 296.906 110.698,296.433 110.296,296.273 110.162 C 294.857 108.972,290.616 104.493,289.882 103.412 C 289.665 103.094,289.416 102.833,289.327 102.833 C 289.239 102.833,289.167 102.755,289.167 102.660 C 289.167 102.564,289.091 102.395,288.998 102.285 C 288.905 102.174,288.606 101.783,288.333 101.417 C 288.061 101.050,287.761 100.659,287.669 100.549 C 287.576 100.438,287.500 100.275,287.500 100.188 C 287.500 100.100,287.439 100.003,287.364 99.972 C 287.231 99.918,285.845 97.828,285.614 97.333 C 285.550 97.196,285.309 96.783,285.079 96.417 C 284.849 96.050,284.582 95.563,284.486 95.334 C 284.389 95.105,284.191 94.786,284.046 94.625 C 283.901 94.465,283.836 94.333,283.902 94.333 C 283.968 94.333,283.868 94.116,283.678 93.849 C 283.488 93.583,283.333 93.261,283.333 93.133 C 283.333 93.005,283.267 92.829,283.185 92.742 C 283.104 92.655,282.722 91.833,282.337 90.917 C 281.952 90.000,281.493 88.929,281.318 88.537 C 281.143 88.145,281.000 87.728,281.000 87.610 C 281.000 87.492,280.850 87.085,280.667 86.706 C 280.483 86.327,280.333 85.929,280.333 85.822 C 280.333 85.715,280.226 85.281,280.094 84.856 C 279.198 81.966,278.989 81.093,278.350 77.583 C 277.013 70.233,277.222 61.580,278.928 53.750 C 279.438 51.408,280.774 46.957,281.329 45.750 C 281.413 45.567,281.642 45.004,281.837 44.500 C 282.353 43.169,283.768 40.182,284.561 38.750 C 284.764 38.383,285.114 37.746,285.340 37.333 C 285.565 36.921,285.994 36.228,286.292 35.793 C 286.590 35.359,286.833 34.928,286.833 34.835 C 286.833 34.742,286.897 34.667,286.974 34.667 C 287.051 34.667,287.256 34.404,287.428 34.083 C 287.601 33.762,287.800 33.500,287.871 33.500 C 287.942 33.500,288.000 33.387,288.000 33.250 C 288.000 33.112,288.059 33.000,288.131 33.000 C 288.203 33.000,288.385 32.791,288.536 32.535 C 288.819 32.056,290.054 30.512,291.561 28.751 C 292.832 27.267,295.732 24.436,297.161 23.284 C 297.852 22.727,298.544 22.154,298.700 22.011 C 299.031 21.707,299.108 21.647,300.368 20.708 C 300.891 20.319,301.386 20.000,301.467 20.000 C 301.548 20.000,301.751 19.850,301.917 19.667 C 302.083 19.483,302.282 19.333,302.359 19.333 C 302.436 19.333,302.865 19.071,303.311 18.750 C 303.758 18.429,304.202 18.167,304.298 18.167 C 304.394 18.167,304.497 18.103,304.528 18.026 C 304.585 17.880,304.707 17.810,306.607 16.824 C 307.236 16.498,307.900 16.144,308.083 16.037 C 308.549 15.767,310.690 14.807,312.083 14.245 C 312.725 13.985,313.321 13.712,313.408 13.637 C 313.495 13.562,313.703 13.500,313.869 13.500 C 314.035 13.500,314.301 13.427,314.461 13.338 C 314.750 13.175,316.440 12.621,318.167 12.121 C 326.900 9.596,338.358 9.092,346.833 10.861 C 351.137 11.759,354.660 12.859,358.250 14.424 C 359.184 14.831,362.914 16.693,363.583 17.086 C 363.950 17.302,364.512 17.625,364.833 17.804 C 365.542 18.201,367.126 19.216,367.583 19.566 C 367.767 19.707,368.308 20.124,368.787 20.494 C 369.265 20.864,369.734 21.167,369.828 21.167 C 369.923 21.167,370.000 21.224,370.000 21.294 C 370.000 21.364,370.403 21.736,370.896 22.121 C 372.669 23.506,374.934 25.687,376.667 27.678 C 377.171 28.258,377.749 28.905,377.951 29.116 C 378.153 29.327,378.281 29.500,378.235 29.500 C 378.190 29.500,378.568 30.021,379.076 30.658 C 379.584 31.295,380.000 31.865,380.000 31.925 C 380.000 31.986,380.211 32.309,380.469 32.643 C 380.728 32.977,381.159 33.621,381.428 34.074 C 382.011 35.056,382.778 36.330,382.972 36.638 C 383.102 36.844,383.881 36.538,384.583 36.005 C 384.675 35.935,385.125 35.667,385.583 35.410 C 387.183 34.511,388.089 33.977,388.833 33.493 C 389.246 33.226,389.769 32.925,389.997 32.826 C 390.224 32.727,390.449 32.594,390.497 32.531 C 390.544 32.468,390.883 32.250,391.250 32.046 C 392.024 31.616,392.052 31.343,391.418 30.389 C 391.185 30.038,390.920 29.637,390.830 29.500 C 390.089 28.370,389.544 27.546,389.333 27.239 C 389.196 27.038,388.936 26.640,388.756 26.354 C 388.576 26.068,388.369 25.833,388.297 25.833 C 388.225 25.833,388.167 25.727,388.167 25.597 C 388.167 25.467,388.095 25.336,388.007 25.306 C 387.920 25.275,387.553 24.853,387.191 24.368 C 385.406 21.971,378.909 15.333,378.348 15.333 C 378.248 15.333,378.167 15.270,378.167 15.194 C 378.167 14.792,371.974 10.428,369.250 8.910 C 367.142 7.735,366.387 7.325,366.000 7.147 C 365.771 7.041,365.021 6.692,364.333 6.371 C 363.646 6.050,362.821 5.676,362.500 5.540 C 362.179 5.404,361.639 5.152,361.300 4.980 C 360.961 4.808,360.567 4.667,360.423 4.667 C 360.280 4.667,360.032 4.592,359.873 4.501 C 359.459 4.265,357.141 3.481,354.500 2.685 C 351.885 1.897,346.628 0.828,344.167 0.584 C 343.662 0.534,342.200 0.384,340.917 0.250 C 338.859 0.035,333.049 -0.051,331.333 0.107 M82.211 0.928 C 63.486 2.787,50.357 14.719,48.576 31.498 C 47.114 45.273,52.799 55.232,66.008 62.033 C 70.973 64.589,74.971 66.119,87.917 70.417 C 93.508 72.273,98.271 73.872,98.500 73.969 C 98.729 74.066,99.532 74.375,100.284 74.655 C 117.417 81.043,124.252 89.417,122.595 101.989 C 120.683 116.496,109.183 124.427,90.083 124.413 C 70.825 124.398,57.299 115.908,52.056 100.543 C 51.704 99.512,51.366 98.668,51.303 98.668 C 51.224 98.667,43.686 103.005,43.036 103.425 C 42.922 103.499,44.228 106.821,45.059 108.569 C 52.664 124.568,69.202 133.830,90.167 133.830 C 115.832 133.830,132.639 119.857,132.662 98.500 C 132.678 84.074,124.410 74.463,105.583 67.025 C 103.658 66.264,101.821 65.538,101.500 65.411 C 100.183 64.891,95.803 63.380,90.604 61.652 C 73.671 56.024,68.083 53.336,63.439 48.584 C 59.539 44.593,57.768 39.099,58.341 32.770 C 59.207 23.206,64.376 16.428,73.917 12.342 C 80.004 9.736,89.939 9.250,97.583 11.185 C 107.456 13.684,115.509 20.636,119.950 30.492 L 120.750 32.266 122.833 31.115 C 123.979 30.481,125.254 29.776,125.667 29.549 C 129.346 27.517,129.098 27.937,127.996 25.594 C 119.890 8.373,102.358 -1.072,82.211 0.928 M154.333 67.333 L 154.333 133.833 159.417 133.833 L 164.500 133.833 164.500 106.583 L 164.500 79.333 185.314 79.333 L 206.128 79.333 206.433 79.792 C 206.600 80.044,206.927 80.600,207.160 81.028 C 207.393 81.455,207.883 82.304,208.250 82.915 C 209.041 84.230,208.984 84.134,210.250 86.313 C 210.800 87.260,211.328 88.158,211.422 88.309 C 211.517 88.460,211.764 88.883,211.970 89.250 C 212.177 89.617,212.526 90.217,212.745 90.583 C 212.965 90.950,213.337 91.587,213.571 92.000 C 213.806 92.412,214.185 93.050,214.414 93.417 C 214.643 93.783,214.904 94.233,214.995 94.417 C 215.086 94.600,215.350 95.050,215.581 95.417 C 215.812 95.783,216.083 96.290,216.183 96.542 C 216.284 96.794,216.426 97.000,216.500 97.000 C 216.574 97.000,216.716 97.206,216.817 97.458 C 216.917 97.710,217.188 98.217,217.419 98.583 C 217.650 98.950,217.914 99.400,218.005 99.583 C 218.096 99.767,218.357 100.217,218.586 100.583 C 218.815 100.950,219.194 101.587,219.429 102.000 C 219.663 102.412,220.019 103.024,220.219 103.359 C 221.096 104.824,221.500 105.550,221.500 105.662 C 221.500 105.728,221.650 105.917,221.833 106.083 C 222.017 106.249,222.167 106.442,222.167 106.513 C 222.167 106.583,222.542 107.290,223.000 108.083 C 223.458 108.877,223.833 109.589,223.833 109.666 C 223.833 109.743,223.893 109.831,223.967 109.861 C 224.040 109.892,224.396 110.431,224.758 111.060 C 225.120 111.689,225.492 112.327,225.583 112.478 C 225.675 112.629,226.044 113.277,226.402 113.918 C 226.761 114.559,227.100 115.121,227.156 115.167 C 227.211 115.212,227.352 115.438,227.468 115.667 C 227.585 115.896,227.773 116.233,227.887 116.417 C 228.001 116.600,228.263 117.050,228.468 117.417 C 228.673 117.783,229.028 118.383,229.255 118.750 C 229.483 119.117,229.865 119.792,230.104 120.250 C 230.342 120.708,230.632 121.196,230.747 121.333 C 230.863 121.471,231.144 121.921,231.372 122.333 C 231.600 122.746,231.946 123.346,232.141 123.667 C 232.336 123.987,232.576 124.436,232.675 124.663 C 232.774 124.891,232.912 125.116,232.983 125.163 C 233.054 125.211,233.338 125.662,233.615 126.167 C 233.892 126.671,234.278 127.346,234.474 127.667 C 234.669 127.987,234.905 128.400,234.997 128.583 C 235.089 128.767,235.460 129.404,235.820 130.000 C 236.180 130.596,236.831 131.702,237.267 132.458 L 238.060 133.833 243.853 133.833 C 247.196 133.833,249.687 133.769,249.742 133.680 C 249.841 133.519,248.770 131.625,247.641 129.965 C 247.472 129.717,247.330 129.454,247.326 129.382 C 247.322 129.309,246.985 128.725,246.576 128.083 C 246.167 127.442,245.759 126.767,245.669 126.583 C 245.579 126.400,245.318 125.950,245.088 125.583 C 244.858 125.217,244.590 124.731,244.491 124.503 C 244.393 124.276,244.255 124.051,244.184 124.003 C 244.113 123.956,243.830 123.504,243.555 123.000 C 242.810 121.632,242.593 121.259,242.490 121.167 C 242.438 121.121,241.879 120.183,241.247 119.083 C 240.615 117.983,240.051 117.046,239.992 117.000 C 239.934 116.954,239.561 116.317,239.163 115.583 C 238.765 114.850,238.341 114.151,238.220 114.030 C 238.099 113.909,238.000 113.741,238.000 113.658 C 238.000 113.575,237.737 113.096,237.417 112.595 C 237.096 112.093,236.833 111.619,236.833 111.541 C 236.833 111.464,236.743 111.310,236.633 111.199 C 236.522 111.089,236.203 110.595,235.924 110.102 C 235.473 109.306,234.384 107.463,233.911 106.696 C 233.816 106.542,233.570 106.117,233.365 105.750 C 233.159 105.383,232.844 104.858,232.664 104.583 C 232.485 104.308,232.263 103.933,232.172 103.750 C 232.081 103.567,231.818 103.117,231.588 102.750 C 231.358 102.383,231.093 101.933,230.998 101.750 C 230.904 101.567,230.609 101.079,230.343 100.667 C 230.077 100.254,229.657 99.542,229.411 99.083 C 229.164 98.625,228.867 98.138,228.751 98.000 C 228.635 97.862,228.488 97.581,228.425 97.375 C 228.362 97.169,228.250 97.000,228.175 97.000 C 228.100 97.000,227.996 96.869,227.943 96.708 C 227.891 96.548,227.659 96.117,227.428 95.750 C 227.198 95.383,226.893 94.858,226.751 94.583 C 226.610 94.308,226.251 93.694,225.955 93.217 C 225.461 92.422,224.535 90.887,223.776 89.603 C 223.267 88.742,221.276 85.366,220.886 84.703 C 220.685 84.362,220.418 83.896,220.291 83.667 C 219.810 82.795,219.577 82.422,219.375 82.203 C 219.260 82.078,219.167 81.913,219.167 81.836 C 219.167 81.759,218.904 81.297,218.583 80.810 C 218.262 80.323,218.000 79.829,218.000 79.712 C 218.000 79.595,217.940 79.500,217.867 79.500 C 217.793 79.500,217.570 79.165,217.371 78.755 L 217.009 78.011 217.713 77.825 C 220.131 77.187,225.314 74.877,227.343 73.532 C 227.577 73.377,228.133 73.025,228.577 72.750 C 229.022 72.475,229.503 72.119,229.647 71.958 C 229.790 71.798,229.965 71.667,230.035 71.667 C 230.105 71.667,230.295 71.561,230.456 71.433 C 233.287 69.178,236.179 66.322,237.741 64.238 C 238.011 63.878,238.277 63.546,238.333 63.500 C 238.587 63.288,240.821 59.801,241.322 58.833 C 242.314 56.917,242.667 56.172,242.667 55.995 C 242.667 55.900,242.782 55.646,242.922 55.431 C 243.063 55.217,243.246 54.825,243.328 54.562 C 243.410 54.299,243.675 53.558,243.917 52.917 C 244.159 52.275,244.414 51.487,244.484 51.167 C 244.554 50.846,244.694 50.321,244.796 50.000 C 245.602 47.457,246.083 42.869,245.948 39.000 C 245.792 34.535,245.560 33.046,244.363 28.833 C 244.084 27.852,243.417 26.001,243.012 25.083 C 241.451 21.544,239.049 17.484,237.625 15.976 C 237.465 15.806,237.333 15.633,237.333 15.591 C 237.333 14.896,229.452 7.667,228.694 7.667 C 228.616 7.667,228.416 7.517,228.250 7.333 C 228.084 7.150,227.872 7.000,227.779 7.000 C 227.686 7.000,227.491 6.896,227.346 6.768 C 227.202 6.641,226.408 6.184,225.583 5.752 C 224.758 5.320,224.008 4.912,223.917 4.845 C 223.825 4.778,223.338 4.553,222.833 4.344 C 222.329 4.136,221.692 3.865,221.417 3.742 C 220.713 3.428,218.032 2.506,217.333 2.338 C 211.038 0.821,211.740 0.850,180.792 0.841 L 154.333 0.833 154.333 67.333 M210.833 10.896 C 213.036 11.290,216.511 12.236,217.293 12.654 C 217.784 12.917,219.063 13.463,219.458 13.579 C 219.665 13.640,219.833 13.754,219.833 13.833 C 219.833 13.913,220.002 14.029,220.208 14.092 C 221.151 14.378,225.325 17.300,225.717 17.946 C 225.790 18.068,225.917 18.167,225.999 18.167 C 226.134 18.167,226.816 18.852,228.322 20.500 C 228.616 20.821,229.185 21.533,229.587 22.083 C 229.989 22.633,230.432 23.213,230.572 23.372 C 230.712 23.530,231.034 24.038,231.288 24.501 C 231.542 24.963,231.917 25.621,232.122 25.962 C 232.326 26.304,232.540 26.696,232.596 26.833 C 232.653 26.971,232.919 27.546,233.187 28.112 C 233.455 28.678,233.779 29.465,233.905 29.862 C 234.032 30.259,234.213 30.808,234.307 31.083 C 235.594 34.834,236.120 41.330,235.410 44.697 C 235.268 45.368,235.113 46.179,235.065 46.500 C 234.923 47.451,234.434 49.028,233.435 51.757 C 233.333 52.037,233.134 52.449,232.993 52.674 C 232.852 52.899,232.591 53.421,232.413 53.833 C 231.205 56.643,226.792 61.932,224.167 63.718 C 223.754 63.998,223.379 64.281,223.333 64.345 C 223.013 64.798,217.657 67.667,217.134 67.667 C 217.043 67.667,216.769 67.771,216.526 67.898 C 216.052 68.147,214.260 68.666,212.500 69.065 C 210.043 69.622,208.013 69.669,186.208 69.668 L 164.500 69.667 164.500 40.079 L 164.500 10.491 186.792 10.537 C 207.749 10.581,209.188 10.602,210.833 10.896 M54.833 151.648 C 53.728 151.795,51.553 152.447,51.414 152.672 C 51.359 152.761,51.195 152.833,51.051 152.833 C 50.825 152.833,48.879 154.021,48.205 154.569 C 46.818 155.698,45.469 157.446,44.656 159.167 C 42.599 163.522,43.105 170.470,45.682 173.261 C 45.857 173.450,46.000 173.670,46.000 173.751 C 46.000 174.526,50.011 177.519,52.044 178.261 C 57.347 180.196,64.789 178.707,67.404 175.187 C 67.594 174.931,67.876 174.597,68.029 174.445 C 69.200 173.283,70.170 170.571,70.288 168.125 L 70.382 166.167 63.608 166.167 L 56.833 166.167 56.833 167.164 L 56.833 168.162 62.473 168.206 L 68.113 168.250 67.895 169.319 C 67.457 171.465,64.942 175.167,63.922 175.167 C 63.782 175.167,63.667 175.228,63.667 175.304 C 63.667 175.506,62.256 176.108,60.669 176.583 C 56.161 177.932,50.323 176.034,47.874 172.424 C 47.623 172.054,47.360 171.725,47.292 171.694 C 47.223 171.664,47.167 171.563,47.167 171.470 C 47.167 171.377,47.033 171.102,46.869 170.859 C 46.584 170.436,46.202 169.346,45.837 167.917 C 45.363 166.063,45.608 162.455,46.304 161.047 C 46.384 160.884,46.630 160.375,46.850 159.917 C 47.492 158.578,49.806 155.833,50.292 155.833 C 50.346 155.833,50.509 155.732,50.654 155.608 C 50.937 155.365,51.861 154.881,52.894 154.433 C 56.265 152.972,61.999 153.832,64.312 156.145 C 64.495 156.328,64.837 156.604,65.072 156.758 C 65.307 156.912,65.500 157.142,65.500 157.269 C 65.500 157.396,65.572 157.500,65.660 157.500 C 65.747 157.500,66.023 157.856,66.273 158.292 C 66.522 158.727,66.751 159.115,66.781 159.154 C 66.909 159.319,68.833 158.175,68.833 157.933 C 68.833 157.485,65.711 154.000,65.310 154.000 C 65.244 154.000,65.088 153.906,64.964 153.792 C 64.738 153.584,64.299 153.316,63.667 153.000 C 63.483 152.908,63.167 152.747,62.964 152.643 C 61.295 151.782,57.400 151.305,54.833 151.648 M193.917 151.659 C 191.085 152.155,189.167 154.833,189.167 158.291 L 189.167 159.500 187.500 159.500 L 185.833 159.500 185.833 160.583 L 185.833 161.667 187.500 161.667 L 189.167 161.667 189.167 170.167 L 189.167 178.667 190.250 178.667 L 191.333 178.667 191.333 170.167 L 191.333 161.667 194.167 161.667 L 197.000 161.667 197.000 160.583 L 197.000 159.500 194.143 159.500 L 191.286 159.500 191.399 157.993 C 191.621 155.056,193.225 153.500,196.030 153.500 L 197.000 153.500 197.000 152.500 L 197.000 151.500 195.792 151.521 C 195.127 151.532,194.283 151.594,193.917 151.659 M357.796 152.093 C 357.218 152.407,357.000 152.819,357.000 153.599 C 357.000 154.803,358.496 155.584,359.481 154.895 C 361.180 153.705,359.617 151.105,357.796 152.093 M92.583 159.273 C 90.376 159.620,87.934 161.176,86.317 163.267 C 83.979 166.290,84.011 172.032,86.381 175.054 C 87.056 175.913,88.124 177.000,88.296 177.000 C 88.388 177.000,88.508 177.112,88.560 177.250 C 88.613 177.387,88.746 177.500,88.857 177.500 C 88.967 177.500,89.188 177.618,89.347 177.763 C 89.507 177.907,89.738 178.042,89.860 178.062 C 89.983 178.083,90.256 178.194,90.466 178.310 C 92.915 179.655,97.196 179.367,100.167 177.657 C 101.203 177.060,103.107 174.904,103.695 173.661 C 107.356 165.925,101.176 157.923,92.583 159.273 M138.417 159.320 C 136.530 159.697,134.393 161.127,133.189 162.817 L 132.667 163.550 132.667 161.525 L 132.667 159.500 131.583 159.500 L 130.500 159.500 130.500 172.917 L 130.500 186.333 131.583 186.333 L 132.667 186.333 132.667 180.571 C 132.667 175.450,132.694 174.837,132.917 175.060 C 133.054 175.197,133.167 175.374,133.167 175.452 C 133.167 175.649,134.804 177.204,135.417 177.590 C 138.765 179.696,142.618 179.720,146.162 177.657 C 149.546 175.686,151.652 170.198,150.444 166.500 C 149.572 163.831,147.892 161.506,146.234 160.674 C 145.968 160.540,145.629 160.332,145.481 160.210 C 145.333 160.089,145.059 159.960,144.872 159.924 C 144.686 159.888,144.284 159.730,143.981 159.574 C 143.359 159.252,139.611 159.081,138.417 159.320 M172.083 159.272 C 171.216 159.406,169.533 160.009,169.326 160.259 C 169.216 160.392,169.019 160.500,168.889 160.500 C 168.759 160.500,168.562 160.574,168.451 160.665 C 168.341 160.757,167.912 161.104,167.500 161.437 C 167.087 161.771,166.750 162.079,166.750 162.122 C 166.750 162.166,166.469 162.506,166.125 162.878 C 165.781 163.251,165.500 163.655,165.500 163.778 C 165.500 163.900,165.442 164.000,165.370 164.000 C 165.158 164.000,164.393 166.005,164.189 167.093 C 163.835 168.985,164.135 172.172,164.750 173.050 C 164.887 173.247,165.000 173.504,165.000 173.622 C 165.000 174.497,167.681 177.206,169.382 178.048 C 176.337 181.494,184.255 176.712,184.189 169.106 C 184.133 162.655,178.704 158.245,172.083 159.272 M216.333 159.327 C 214.534 159.657,212.641 160.689,211.453 161.987 C 211.250 162.209,210.933 162.545,210.750 162.735 C 209.466 164.060,208.401 167.428,208.558 169.667 C 208.672 171.301,209.433 173.863,210.011 174.559 C 210.098 174.664,210.467 175.133,210.831 175.602 C 213.025 178.430,217.380 179.820,221.139 178.893 C 222.454 178.568,224.638 177.542,224.897 177.126 C 224.998 176.965,225.156 176.832,225.248 176.830 C 225.472 176.827,226.167 176.086,226.167 175.852 C 226.167 175.750,226.228 175.667,226.304 175.667 C 226.773 175.667,227.452 174.079,227.042 173.941 C 226.881 173.887,226.487 173.687,226.167 173.497 L 225.583 173.152 225.083 173.783 C 223.116 176.265,221.782 176.917,218.667 176.917 C 208.394 176.917,208.108 161.659,218.372 161.199 C 220.197 161.117,223.333 162.062,223.333 162.693 C 223.333 162.770,223.404 162.833,223.491 162.833 C 223.721 162.833,224.500 163.588,224.500 163.811 C 224.500 163.915,224.574 164.000,224.664 164.000 C 224.755 164.000,224.940 164.265,225.075 164.590 L 225.322 165.179 226.036 164.820 C 227.153 164.256,227.174 164.226,226.900 163.570 C 226.768 163.252,226.529 162.857,226.371 162.691 C 226.213 162.526,225.927 162.209,225.736 161.987 C 223.830 159.770,219.928 158.666,216.333 159.327 M237.583 159.327 C 231.241 160.664,227.760 168.274,230.928 173.875 C 231.149 174.265,231.382 174.696,231.446 174.833 C 231.830 175.653,234.784 178.167,235.363 178.167 C 235.493 178.167,235.674 178.241,235.764 178.331 C 236.499 179.066,240.453 179.372,242.417 178.847 C 244.120 178.391,246.167 177.362,246.167 176.962 C 246.167 176.880,246.226 176.850,246.298 176.895 C 246.567 177.061,248.336 174.944,248.857 173.833 C 249.544 172.366,249.698 171.854,249.846 170.555 C 250.107 168.256,249.707 165.979,248.702 164.053 C 248.353 163.385,246.220 161.000,245.970 161.000 C 245.904 161.000,245.527 160.782,245.133 160.516 C 243.522 159.429,239.845 158.850,237.583 159.327 M260.583 159.320 C 259.411 159.554,258.675 159.986,257.581 161.079 L 256.514 162.147 256.465 160.865 L 256.417 159.583 255.375 159.534 L 254.333 159.484 254.333 169.075 L 254.333 178.667 255.417 178.667 L 256.500 178.667 256.506 172.625 C 256.512 166.251,256.587 165.451,257.308 164.079 C 257.672 163.387,258.730 162.167,258.966 162.167 C 259.040 162.167,259.186 162.081,259.291 161.976 C 261.059 160.207,265.268 161.297,266.466 163.833 L 266.899 164.750 266.964 171.708 L 267.028 178.667 268.097 178.667 L 269.167 178.667 269.167 172.449 C 269.167 165.676,269.236 165.109,270.258 163.500 C 271.869 160.964,275.874 160.369,277.998 162.350 C 278.366 162.693,278.667 163.049,278.667 163.140 C 278.667 163.231,278.742 163.331,278.833 163.361 C 279.477 163.576,279.667 165.592,279.667 172.208 L 279.667 178.667 280.764 178.667 L 281.861 178.667 281.797 171.542 C 281.725 163.496,281.721 163.473,280.293 161.559 C 277.700 158.084,271.185 158.402,268.828 162.119 L 268.374 162.834 268.157 162.292 C 267.248 160.018,263.820 158.673,260.583 159.320 M294.917 159.318 C 294.550 159.391,294.025 159.548,293.750 159.668 C 293.475 159.787,293.168 159.902,293.068 159.924 C 292.370 160.074,289.544 162.498,289.289 163.167 C 289.236 163.304,289.187 162.535,289.180 161.458 L 289.167 159.500 288.004 159.500 L 286.841 159.500 286.835 172.917 L 286.830 186.333 287.998 186.333 L 289.167 186.333 289.175 180.625 C 289.184 175.204,289.198 174.937,289.467 175.328 C 293.113 180.633,302.703 180.239,305.556 174.667 C 305.721 174.346,305.955 173.896,306.077 173.667 C 307.286 171.399,307.443 168.048,306.461 165.458 C 306.191 164.748,305.902 164.167,305.819 164.167 C 305.735 164.167,305.667 164.012,305.667 163.823 C 305.667 163.294,303.095 160.823,302.000 160.300 C 300.058 159.371,299.813 159.312,297.667 159.247 C 296.521 159.213,295.283 159.245,294.917 159.318 M318.000 159.321 C 316.904 159.513,315.479 160.100,314.525 160.750 C 313.817 161.233,311.667 163.558,311.667 163.841 C 311.667 164.020,311.598 164.167,311.515 164.167 C 311.262 164.167,310.535 166.330,310.319 167.721 C 310.019 169.655,310.403 172.094,311.253 173.667 C 311.377 173.896,311.613 174.346,311.777 174.667 C 314.441 179.871,323.218 180.652,327.320 176.050 L 328.167 175.100 328.167 176.883 L 328.167 178.667 329.333 178.667 L 330.500 178.667 330.500 169.083 L 330.500 159.500 329.339 159.500 L 328.178 159.500 328.131 161.288 C 328.088 162.900,328.059 163.047,327.833 162.783 C 326.711 161.466,324.851 159.989,324.128 159.843 C 324.061 159.830,323.724 159.701,323.379 159.557 C 322.662 159.257,319.220 159.106,318.000 159.321 M343.000 159.269 C 342.373 159.386,340.667 160.026,340.662 160.145 C 340.660 160.203,340.378 160.424,340.037 160.636 C 339.696 160.849,339.154 161.368,338.833 161.791 L 338.250 162.560 338.202 161.030 L 338.154 159.500 337.077 159.500 L 336.000 159.500 336.000 169.083 L 336.000 178.667 337.083 178.667 L 338.167 178.667 338.167 173.052 C 338.167 166.983,338.259 166.148,339.113 164.448 C 339.550 163.579,340.785 162.167,341.109 162.167 C 341.219 162.167,341.409 162.069,341.530 161.949 C 341.881 161.602,343.683 161.167,344.770 161.167 C 346.868 161.167,348.533 162.086,349.525 163.790 L 350.083 164.750 350.135 171.708 L 350.187 178.667 351.265 178.667 L 352.344 178.667 352.297 171.542 C 352.246 163.867,352.305 164.442,351.372 162.530 C 351.048 161.868,349.807 160.500,349.530 160.500 C 349.422 160.500,349.333 160.438,349.333 160.361 C 349.333 160.222,349.131 160.109,347.921 159.575 C 347.265 159.285,343.998 159.082,343.000 159.269 M371.504 159.346 C 369.567 159.690,366.727 161.604,365.711 163.250 C 360.581 171.554,367.446 181.161,376.860 178.849 C 379.312 178.247,382.500 175.909,382.500 174.713 C 382.500 174.475,380.618 173.563,380.550 173.767 C 379.587 176.646,374.122 177.953,370.333 176.211 C 368.551 175.391,366.601 172.794,366.390 170.959 L 366.318 170.333 374.931 170.333 L 383.544 170.333 383.458 168.625 C 383.370 166.892,383.134 165.969,382.382 164.417 C 381.754 163.119,381.589 162.864,380.895 162.116 C 379.707 160.834,379.008 160.348,377.250 159.584 C 376.452 159.237,372.933 159.091,371.504 159.346 M390.833 159.319 C 388.119 159.957,386.462 161.916,386.456 164.492 C 386.449 167.719,387.598 168.649,393.583 170.258 C 394.500 170.505,395.321 170.772,395.408 170.853 C 395.495 170.934,395.683 171.002,395.825 171.003 C 395.967 171.005,396.458 171.335,396.917 171.736 L 397.750 172.465 397.750 173.691 C 397.750 177.791,390.005 178.393,387.920 174.456 C 387.529 173.717,387.488 173.711,386.556 174.257 C 385.687 174.766,385.653 175.050,386.341 176.068 C 389.252 180.383,397.485 180.200,399.579 175.774 C 401.166 172.420,399.258 169.635,394.531 168.407 C 390.075 167.249,389.173 166.771,388.652 165.290 C 387.591 162.271,393.161 159.681,395.846 161.945 C 395.991 162.067,396.179 162.171,396.263 162.177 C 396.413 162.187,397.398 163.337,397.681 163.833 C 397.805 164.052,397.871 164.053,398.203 163.844 C 398.412 163.713,398.792 163.500,399.048 163.371 C 399.928 162.926,397.749 159.842,396.549 159.832 C 396.476 159.832,396.192 159.712,395.917 159.566 C 395.343 159.262,391.808 159.090,390.833 159.319 M80.500 159.646 C 79.084 160.157,77.919 161.135,77.198 162.417 C 77.049 162.682,77.009 162.417,77.005 161.125 L 77.000 159.500 75.917 159.500 L 74.833 159.500 74.833 169.083 L 74.833 178.667 75.917 178.667 L 77.000 178.667 77.003 173.125 C 77.005 170.077,77.078 167.092,77.165 166.492 C 77.585 163.585,80.063 161.333,82.841 161.333 C 83.332 161.333,83.333 161.330,83.333 160.333 L 83.333 159.333 82.292 159.354 C 81.719 159.366,80.912 159.497,80.500 159.646 M108.548 166.292 C 108.608 171.960,108.665 173.235,108.893 174.000 C 109.196 175.012,109.846 176.333,110.041 176.333 C 110.110 176.333,110.167 176.427,110.168 176.542 C 110.169 176.794,111.304 177.779,112.142 178.254 C 114.248 179.450,117.801 179.449,120.128 178.253 C 120.783 177.916,122.500 176.206,122.500 175.891 C 122.500 175.768,122.575 175.667,122.667 175.667 C 122.765 175.667,122.833 176.278,122.833 177.167 L 122.833 178.667 123.833 178.667 L 124.833 178.667 124.833 169.083 L 124.833 159.500 123.833 159.500 L 122.833 159.500 122.833 164.530 C 122.833 171.836,122.516 173.542,120.832 175.294 C 118.530 177.690,113.668 177.638,111.929 175.198 C 110.875 173.718,110.860 173.599,110.846 166.208 L 110.833 159.500 109.655 159.500 L 108.477 159.500 108.548 166.292 M357.667 169.083 L 357.667 178.667 358.667 178.667 L 359.667 178.667 359.667 169.083 L 359.667 159.500 358.667 159.500 L 357.667 159.500 357.667 169.083 M96.678 161.429 C 98.521 161.964,101.333 164.055,101.333 164.891 C 101.333 165.020,101.441 165.215,101.572 165.324 C 102.476 166.074,102.796 169.670,102.136 171.655 C 100.022 178.005,91.363 179.007,87.898 173.303 C 86.368 170.784,86.345 167.263,87.845 165.041 C 88.113 164.643,88.333 164.289,88.333 164.255 C 88.333 164.127,89.686 162.833,89.819 162.833 C 89.896 162.833,90.049 162.725,90.160 162.592 C 91.071 161.494,94.681 160.850,96.678 161.429 M142.834 161.484 C 148.573 163.163,150.461 170.318,146.314 174.671 C 140.149 181.143,129.594 173.628,133.550 165.583 C 134.091 164.483,135.466 162.833,135.842 162.833 C 135.929 162.833,136.000 162.767,136.000 162.685 C 136.000 162.487,137.364 161.827,138.500 161.477 C 139.748 161.092,141.504 161.094,142.834 161.484 M176.189 161.437 C 178.110 162.018,180.186 163.565,180.857 164.917 C 180.994 165.192,181.185 165.567,181.283 165.750 C 183.359 169.656,181.215 174.862,176.796 176.644 C 171.245 178.882,164.448 172.727,166.421 167.250 C 166.554 166.883,166.663 166.469,166.664 166.330 C 166.666 166.190,166.929 165.677,167.250 165.190 C 167.571 164.703,167.833 164.279,167.833 164.249 C 167.833 164.097,169.166 162.833,169.325 162.833 C 169.427 162.833,169.551 162.727,169.601 162.596 C 169.695 162.353,170.452 161.987,171.917 161.478 C 172.995 161.104,175.022 161.084,176.189 161.437 M242.001 161.481 C 243.150 161.814,244.500 162.471,244.500 162.698 C 244.500 162.772,244.581 162.833,244.680 162.833 C 245.017 162.833,246.315 164.395,246.891 165.495 C 248.192 167.979,247.987 171.589,246.427 173.648 C 243.498 177.514,238.487 178.208,234.772 175.261 C 231.783 172.891,231.109 167.905,233.332 164.611 C 235.193 161.853,238.798 160.552,242.001 161.481 M299.167 161.481 C 300.317 161.814,301.667 162.471,301.667 162.698 C 301.667 162.772,301.742 162.833,301.833 162.833 C 302.042 162.833,303.333 164.112,303.333 164.319 C 303.333 164.403,303.399 164.497,303.479 164.528 C 303.646 164.592,304.538 166.292,304.601 166.667 C 304.624 166.804,304.739 167.423,304.855 168.042 C 305.060 169.124,305.012 169.801,304.603 171.627 C 303.690 175.701,297.575 178.345,293.652 176.362 C 288.447 173.731,287.539 166.976,291.866 163.086 C 293.748 161.394,296.660 160.754,299.167 161.481 M322.583 161.487 C 331.123 164.189,329.527 176.719,320.611 176.972 C 318.571 177.030,318.429 177.003,316.713 176.214 C 312.931 174.475,311.290 169.388,313.258 165.500 C 314.959 162.141,319.065 160.374,322.583 161.487 M375.929 161.435 C 378.797 162.372,381.167 165.147,381.167 167.571 L 381.167 168.167 373.734 168.167 L 366.302 168.167 366.421 167.292 C 366.629 165.764,368.425 162.833,369.154 162.833 C 369.252 162.833,369.333 162.761,369.333 162.672 C 369.333 162.490,370.702 161.816,371.833 161.441 C 372.850 161.105,374.908 161.102,375.929 161.435 " stroke="none" fill="#fbfbfc" fill-rule="evenodd"></path><path id="path1" d="M0.000 67.000 L 0.000 134.000 43.125 133.973 C 66.844 133.959,85.987 133.920,85.667 133.887 C 70.899 132.388,60.738 128.058,52.829 119.894 C 50.465 117.454,46.667 112.548,46.667 111.935 C 46.667 111.889,46.389 111.378,46.050 110.801 C 45.084 109.154,42.706 103.576,42.892 103.393 C 42.906 103.380,44.604 102.379,46.667 101.168 C 48.729 99.958,50.652 98.824,50.940 98.648 L 51.463 98.329 51.912 99.706 C 57.134 115.732,70.383 124.227,90.167 124.234 C 101.629 124.239,108.913 122.019,114.966 116.677 C 123.638 109.023,125.292 94.533,118.459 86.090 C 114.994 81.810,106.925 76.873,99.500 74.491 C 99.271 74.418,98.558 74.160,97.917 73.918 C 97.275 73.676,94.688 72.800,92.167 71.970 C 79.584 67.831,77.016 66.943,72.725 65.245 C 54.795 58.149,47.462 48.393,48.362 32.833 C 49.408 14.747,63.860 1.859,84.458 0.644 C 102.552 -0.424,117.827 7.503,126.444 22.431 C 128.897 26.682,129.260 27.761,128.387 28.200 C 128.128 28.331,126.904 29.002,125.667 29.693 C 121.983 31.749,120.811 32.367,120.736 32.292 C 120.698 32.253,120.111 31.103,119.433 29.736 C 115.451 21.707,108.868 15.300,101.966 12.738 C 89.322 8.043,75.508 9.616,66.644 16.759 C 58.492 23.329,55.874 36.237,60.905 45.056 C 63.965 50.418,71.228 54.992,82.917 58.918 C 102.786 65.592,105.890 66.742,111.946 69.676 C 124.884 75.945,131.362 83.792,132.577 94.667 C 132.756 96.266,132.795 88.594,132.812 48.292 L 132.833 0.000 66.417 0.000 L 0.000 0.000 0.000 67.000 M132.545 102.542 C 131.000 120.179,117.283 131.580,94.833 133.887 C 94.513 133.920,102.931 133.959,113.542 133.973 L 132.833 134.000 132.833 117.167 C 132.833 107.908,132.812 100.333,132.786 100.333 C 132.760 100.333,132.651 101.327,132.545 102.542 " stroke="none" fill="#04b4e4" fill-rule="evenodd"></path><path id="path2" d="M86.708 0.623 C 87.144 0.657,87.856 0.657,88.292 0.623 C 88.727 0.588,88.371 0.560,87.500 0.560 C 86.629 0.560,86.273 0.588,86.708 0.623 M119.250 13.167 C 119.701 13.625,120.108 14.000,120.154 14.000 C 120.200 14.000,119.868 13.625,119.417 13.167 C 118.965 12.708,118.558 12.333,118.513 12.333 C 118.467 12.333,118.799 12.708,119.250 13.167 M123.833 77.552 C 123.833 77.581,124.077 77.825,124.375 78.094 L 124.917 78.583 124.427 78.042 C 123.971 77.537,123.833 77.423,123.833 77.552 M116.500 83.885 C 116.500 83.914,116.744 84.158,117.042 84.427 L 117.583 84.917 117.094 84.375 C 116.638 83.870,116.500 83.757,116.500 83.885 M122.718 98.750 C 122.719 99.300,122.750 99.505,122.787 99.205 C 122.825 98.906,122.824 98.456,122.786 98.205 C 122.748 97.955,122.717 98.200,122.718 98.750 M87.542 124.448 C 87.702 124.490,87.965 124.490,88.125 124.448 C 88.285 124.406,88.154 124.372,87.833 124.372 C 87.513 124.372,87.381 124.406,87.542 124.448 M87.014 133.901 C 87.146 134.030,88.316 134.073,88.436 133.953 C 88.502 133.887,88.193 133.833,87.750 133.833 C 87.307 133.833,86.976 133.864,87.014 133.901 M91.896 133.952 C 92.015 134.071,93.357 134.028,93.486 133.902 C 93.524 133.864,93.156 133.833,92.667 133.833 C 92.178 133.833,91.831 133.887,91.896 133.952 " stroke="none" fill="#64d0ec" fill-rule="evenodd"></path><path id="path3" d="M65.740 17.375 L 65.250 17.917 65.792 17.427 C 66.090 17.158,66.333 16.914,66.333 16.885 C 66.333 16.757,66.196 16.870,65.740 17.375 M112.333 19.583 C 112.924 20.179,113.445 20.667,113.490 20.667 C 113.536 20.667,113.091 20.179,112.500 19.583 C 111.909 18.987,111.389 18.500,111.343 18.500 C 111.297 18.500,111.743 18.987,112.333 19.583 M58.221 34.917 C 58.222 35.558,58.252 35.800,58.288 35.455 C 58.324 35.109,58.324 34.584,58.287 34.288 C 58.250 33.992,58.221 34.275,58.221 34.917 M56.000 55.083 C 56.591 55.679,57.111 56.167,57.157 56.167 C 57.203 56.167,56.757 55.679,56.167 55.083 C 55.576 54.487,55.055 54.000,55.010 54.000 C 54.964 54.000,55.409 54.487,56.000 55.083 M132.730 98.417 C 132.731 99.517,132.758 99.945,132.790 99.368 C 132.823 98.792,132.823 97.892,132.790 97.368 C 132.757 96.845,132.730 97.317,132.730 98.417 M122.709 97.250 C 122.711 97.617,122.745 97.747,122.785 97.540 C 122.824 97.332,122.823 97.032,122.781 96.873 C 122.739 96.714,122.707 96.883,122.709 97.250 M122.705 100.167 C 122.705 100.487,122.740 100.619,122.782 100.458 C 122.823 100.298,122.823 100.035,122.782 99.875 C 122.740 99.715,122.705 99.846,122.705 100.167 M59.500 113.052 C 59.500 113.081,59.744 113.325,60.042 113.594 L 60.583 114.083 60.094 113.542 C 59.638 113.037,59.500 112.923,59.500 113.052 M115.911 115.875 L 114.917 116.917 115.958 115.922 C 116.531 115.375,117.000 114.906,117.000 114.880 C 117.000 114.757,116.836 114.907,115.911 115.875 M52.917 120.000 C 53.368 120.458,53.775 120.833,53.821 120.833 C 53.867 120.833,53.535 120.458,53.083 120.000 C 52.632 119.542,52.225 119.167,52.179 119.167 C 52.133 119.167,52.465 119.542,52.917 120.000 M123.242 122.208 L 122.583 122.917 123.292 122.258 C 123.950 121.645,124.077 121.500,123.950 121.500 C 123.923 121.500,123.605 121.819,123.242 122.208 M86.292 124.451 C 86.498 124.491,86.835 124.491,87.042 124.451 C 87.248 124.411,87.079 124.379,86.667 124.379 C 86.254 124.379,86.085 124.411,86.292 124.451 M93.377 124.453 C 93.631 124.491,94.006 124.490,94.211 124.451 C 94.416 124.411,94.208 124.380,93.750 124.381 C 93.292 124.382,93.124 124.415,93.377 124.453 M85.792 133.784 C 85.998 133.824,86.335 133.824,86.542 133.784 C 86.748 133.745,86.579 133.712,86.167 133.712 C 85.754 133.712,85.585 133.745,85.792 133.784 M93.792 133.784 C 93.998 133.824,94.335 133.824,94.542 133.784 C 94.748 133.745,94.579 133.712,94.167 133.712 C 93.754 133.712,93.585 133.745,93.792 133.784 M88.549 133.938 C 88.682 134.070,91.658 134.064,91.791 133.931 C 91.845 133.877,91.114 133.833,90.167 133.833 C 89.219 133.833,88.492 133.881,88.549 133.938 " stroke="none" fill="#9edff4" fill-rule="evenodd"></path><path id="path4" d="M85.708 10.115 C 85.869 10.157,86.131 10.157,86.292 10.115 C 86.452 10.073,86.321 10.039,86.000 10.039 C 85.679 10.039,85.548 10.073,85.708 10.115 M110.833 18.219 C 110.833 18.248,111.077 18.491,111.375 18.760 L 111.917 19.250 111.427 18.708 C 110.971 18.203,110.833 18.090,110.833 18.219 M89.298 124.457 C 89.875 124.490,90.775 124.489,91.298 124.456 C 91.822 124.423,91.350 124.397,90.250 124.397 C 89.150 124.397,88.722 124.424,89.298 124.457 " stroke="none" fill="#3cc4ec" fill-rule="evenodd"></path></g></svg>